<svg id="Capa_1" enable-background="new 0 0 512 512" height="512" viewBox="0 0 512 512" width="512" xmlns="http://www.w3.org/2000/svg"><g><g><path d="m256 0c-141.61 0-256 114.43-256 256 0 141.61 114.43 256 256 256 141.61 0 256-114.43 256-256 0-141.61-114.43-256-256-256z" fill="#ff641a"/><path d="m512 256c0 141.57-114.39 256-256 256v-512c141.57 0 256 114.39 256 256z" fill="#f03800"/><circle cx="256" cy="256" fill="#edf5ff" r="226"/><path d="m482 256c0 125.09-100.86 226-226 226v-452c125.09 0 226 100.86 226 226z" fill="#d5e8fe"/></g><g><path d="m241 61h30v30h-30z" fill="#575f64"/></g><path d="m256 61h15v30h-15z" fill="#474f54"/><g><path d="m61 241h30v30h-30z" fill="#575f64"/></g><g><path d="m421 241h30v30h-30z" fill="#474f54"/></g><g><path d="m241 421h30v30h-30z" fill="#575f64"/></g><path d="m256 421h15v30h-15z" fill="#474f54"/><g><path d="m279.02 227.8-5.52 15.533-13.77 7.617-15.563-5.45-5.737-15.85 5.57-17.15 13.73-5.99 16.27 5.657z" fill="#474f54"/><g fill="#6aa9ff"><path d="m238.43 229.65 21.3 21.3-112.21 134.65-23.04-19.2z"/><path d="m297.52 205.6-18.5 22.2-21.29-21.29 16.75-20.11z"/></g></g><g><g><g><path d="m236.61 185.39 21.12 21.12-19.3 23.14-23.04-23.04z" fill="#ff641a"/></g><g><path d="m356.61 305.39-21.22 21.22-75.66-75.66 19.29-23.15z" fill="#ff641a"/></g></g></g></g></svg>